<svg xmlns="http://www.w3.org/2000/svg" xmlns:xlink="http://www.w3.org/1999/xlink" viewBox="0 0 33px 33px" width="33px" height="33px">#<path fill="var(--pk-ui-01--light)" stroke="transparent" stroke-width="0" style="" d="M16.0059.0219727c-8.83625 0-16.00004062 7.1631473-16.00004062 16.0000273 0 8.8368 7.16379062 16 16.00004062 16 8.8362 0 16-7.1632 16-16 0-8.83688-7.1638-16.0000273-16-16.0000273zm0 1.2333973c8.157 0 14.7692 6.61155 14.7692 14.76663 0 8.155-6.6122 14.7666-14.7692 14.7666-8.15713 0-14.76927-6.6116-14.76927-14.7666 0-8.15508 6.61214-14.76663 14.76927-14.76663zm4.5224 13.26263c1.1271.7591 1.1277 1.9908 0 2.7502l-6.1729 4.1575c-1.1271.7591-2.0419.2729-2.0419-1.0868v-8.8917c0-1.3603.9142-1.84612 2.0419-1.0867z" /></svg>